# Made in Blockbench 4.8.3
mtllib wide.mtl

o head
v 0.2649631492290512 2.0283539787419183 0.1601143425749496
v 0.22175809258585943 1.9630908826318922 -0.33372171460049815
v 0.27065120284453226 1.5326315480550132 0.2251290929008094
v 0.22744614620134052 1.467368451944987 -0.2687069642746384
v -0.27633925646001334 1.9630908826318922 -0.2901438432266691
v -0.2331341998168216 2.0283539787419183 0.20369221394877868
v -0.27065120284453226 1.467368451944987 -0.22512909290080935
v -0.22744614620134052 1.5326315480550132 0.26870696427463847
vt 0.125 0.875
vt 0.25 0.875
vt 0.25 0.75
vt 0.125 0.75
vt 0 0.875
vt 0.125 0.875
vt 0.125 0.75
vt 0 0.75
vt 0.375 0.875
vt 0.5 0.875
vt 0.5 0.75
vt 0.375 0.75
vt 0.25 0.875
vt 0.375 0.875
vt 0.375 0.75
vt 0.25 0.75
vt 0.25 0.875
vt 0.125 0.875
vt 0.125 1
vt 0.25 1
vt 0.375 1
vt 0.25 1
vt 0.25 0.875
vt 0.375 0.875
vn -0.08641011328638344 -0.13052619222005163 -0.9876721143508957
vn 0.9961946980917457 -1.7347234759768075e-18 -0.08715574274765818
vn 0.08641011328638344 0.13052619222005163 0.9876721143508957
vn -0.9961946980917457 1.7347234759768075e-18 0.08715574274765818
vn -0.011376107230962199 0.9914448613738104 -0.13002950065171945
vn 0.011376107230962199 -0.9914448613738104 0.13002950065171945
usemtl m_a81a68b3-4bf3-20b2-e016-9574d7f5fe6f
f 4/4/1 7/3/1 5/2/1 2/1/1
f 3/8/2 4/7/2 2/6/2 1/5/2
f 8/12/3 3/11/3 1/10/3 6/9/3
f 7/16/4 8/15/4 6/14/4 5/13/4
f 6/20/5 1/19/5 2/18/5 5/17/5
f 7/24/6 4/23/6 3/22/6 8/21/6
o headwear
v 0.29843904623365014 2.0634155741667266 0.18419205729218446
v 0.24983335751005942 1.9899945910429473 -0.3713735070301942
v 0.30483810655106636 1.5057278396439582 0.25733365140877673
v 0.25623241782747563 1.432306856520179 -0.29823191291360196
v -0.31052616016654744 1.9899945910429473 -0.3223484017346365
v -0.2619204714429567 2.0634155741667266 0.23321716258774217
v -0.3041270998491312 1.432306856520179 -0.24920680761804426
v -0.2555214111255405 1.5057278396439582 0.30635875670433443
vt 0.625 0.875
vt 0.75 0.875
vt 0.75 0.75
vt 0.625 0.75
vt 0.5 0.875
vt 0.625 0.875
vt 0.625 0.75
vt 0.5 0.75
vt 0.875 0.875
vt 1 0.875
vt 1 0.75
vt 0.875 0.75
vt 0.75 0.875
vt 0.875 0.875
vt 0.875 0.75
vt 0.75 0.75
vt 0.75 0.875
vt 0.625 0.875
vt 0.625 1
vt 0.75 1
vt 0.875 1
vt 0.75 1
vt 0.75 0.875
vt 0.875 0.875
vn -0.08641011328638344 -0.13052619222005163 -0.9876721143508957
vn 0.9961946980917457 -1.7347234759768075e-18 -0.08715574274765818
vn 0.08641011328638344 0.13052619222005163 0.9876721143508957
vn -0.9961946980917457 1.7347234759768075e-18 0.08715574274765818
vn -0.011376107230962199 0.9914448613738104 -0.13002950065171945
vn 0.011376107230962199 -0.9914448613738104 0.13002950065171945
usemtl m_a81a68b3-4bf3-20b2-e016-9574d7f5fe6f
f 12/28/7 15/27/7 13/26/7 10/25/7
f 11/32/8 12/31/8 10/30/8 9/29/8
f 16/36/9 11/35/9 9/34/9 14/33/9
f 15/40/10 16/39/10 14/38/10 13/37/10
f 14/44/11 9/43/11 10/42/11 13/41/11
f 15/48/12 12/47/12 11/46/12 16/45/12
o body
v 0.25 1.5 0.125
v 0.25 1.5 -0.125
v 0.25 0.75 0.125
v 0.25 0.75 -0.125
v -0.25 1.5 -0.125
v -0.25 1.5 0.125
v -0.25 0.75 -0.125
v -0.25 0.75 0.125
vt 0.3125 0.6875
vt 0.4375 0.6875
vt 0.4375 0.5
vt 0.3125 0.5
vt 0.25 0.6875
vt 0.3125 0.6875
vt 0.3125 0.5
vt 0.25 0.5
vt 0.5 0.6875
vt 0.625 0.6875
vt 0.625 0.5
vt 0.5 0.5
vt 0.4375 0.6875
vt 0.5 0.6875
vt 0.5 0.5
vt 0.4375 0.5
vt 0.4375 0.6875
vt 0.3125 0.6875
vt 0.3125 0.75
vt 0.4375 0.75
vt 0.5625 0.75
vt 0.4375 0.75
vt 0.4375 0.6875
vt 0.5625 0.6875
vn 0 0 -1
vn 1 0 0
vn 0 0 1
vn -1 0 0
vn 0 1 0
vn 0 -1 0
usemtl m_a81a68b3-4bf3-20b2-e016-9574d7f5fe6f
f 20/52/13 23/51/13 21/50/13 18/49/13
f 19/56/14 20/55/14 18/54/14 17/53/14
f 24/60/15 19/59/15 17/58/15 22/57/15
f 23/64/16 24/63/16 22/62/16 21/61/16
f 22/68/17 17/67/17 18/66/17 21/65/17
f 23/72/18 20/71/18 19/70/18 24/69/18
o jacket
v 0.265625 1.515625 0.140625
v 0.265625 1.515625 -0.140625
v 0.265625 0.734375 0.140625
v 0.265625 0.734375 -0.140625
v -0.265625 1.515625 -0.140625
v -0.265625 1.515625 0.140625
v -0.265625 0.734375 -0.140625
v -0.265625 0.734375 0.140625
vt 0.3125 0.4375
vt 0.4375 0.4375
vt 0.4375 0.25
vt 0.3125 0.25
vt 0.25 0.4375
vt 0.3125 0.4375
vt 0.3125 0.25
vt 0.25 0.25
vt 0.5 0.4375
vt 0.625 0.4375
vt 0.625 0.25
vt 0.5 0.25
vt 0.4375 0.4375
vt 0.5 0.4375
vt 0.5 0.25
vt 0.4375 0.25
vt 0.4375 0.4375
vt 0.3125 0.4375
vt 0.3125 0.5
vt 0.4375 0.5
vt 0.5625 0.5
vt 0.4375 0.5
vt 0.4375 0.4375
vt 0.5625 0.4375
vn 0 0 -1
vn 1 0 0
vn 0 0 1
vn -1 0 0
vn 0 1 0
vn 0 -1 0
usemtl m_a81a68b3-4bf3-20b2-e016-9574d7f5fe6f
f 28/76/19 31/75/19 29/74/19 26/73/19
f 27/80/20 28/79/20 26/78/20 25/77/20
f 32/84/21 27/83/21 25/82/21 30/81/21
f 31/88/22 32/87/22 30/86/22 29/85/22
f 30/92/23 25/91/23 26/90/23 29/89/23
f 31/96/24 28/95/24 27/94/24 32/93/24
o right_arm
v 0.4766131871962157 1.4931839423531155 0.13541880510492543
v 0.47376916038847516 1.5147864706747116 -0.1136298694180109
v 0.5741353126850053 0.7524298565899439 0.07005199804418183
v 0.5712912858772647 0.7740323849115398 -0.17899667647875456
v 0.22590794504502254 1.4821549226196986 -0.1136298694180109
v 0.22875197185276308 1.4605523942981027 0.13541880510492543
v 0.32343007053381223 0.7414008368565268 -0.17899667647875456
v 0.32627409734155277 0.7197983085349309 0.07005199804418183
vt 0.6875 0.6875
vt 0.75 0.6875
vt 0.75 0.5
vt 0.6875 0.5
vt 0.625 0.6875
vt 0.6875 0.6875
vt 0.6875 0.5
vt 0.625 0.5
vt 0.8125 0.6875
vt 0.875 0.6875
vt 0.875 0.5
vt 0.8125 0.5
vt 0.75 0.6875
vt 0.8125 0.6875
vt 0.8125 0.5
vt 0.75 0.5
vt 0.75 0.6875
vt 0.6875 0.6875
vt 0.6875 0.75
vt 0.75 0.75
vt 0.8125 0.75
vt 0.75 0.75
vt 0.75 0.6875
vt 0.8125 0.6875
vn -0.0113761072309622 0.08641011328638344 -0.9961946980917457
vn 0.9914448613738104 0.1305261922200516 1.734723475976807e-18
vn 0.0113761072309622 -0.08641011328638344 0.9961946980917457
vn -0.9914448613738104 -0.1305261922200516 -1.734723475976807e-18
vn -0.13002950065171948 0.9876721143508957 0.08715574274765818
vn 0.13002950065171948 -0.9876721143508957 -0.08715574274765818
usemtl m_a81a68b3-4bf3-20b2-e016-9574d7f5fe6f
f 36/100/25 39/99/25 37/98/25 34/97/25
f 35/104/26 36/103/26 34/102/26 33/101/26
f 40/108/27 35/107/27 33/106/27 38/105/27
f 39/112/28 40/111/28 38/110/28 37/109/28
f 38/116/29 33/115/29 34/114/29 37/113/29
f 39/120/30 36/119/30 35/118/30 40/117/30
o right_sleeve
v 0.4902505538829822 1.509305632873187 0.1523461557430411
v 0.487051023724274 1.5336084772349823 -0.12783360309526226
v 0.591836101267138 0.7376867935365496 0.08425573172143319
v 0.5886365711084298 0.7619896378983451 -0.19592402711687024
v 0.2082071564628899 1.4968979856730926 -0.12783360309526226
v 0.211406686621598 1.4725951413112974 0.1523461557430411
v 0.3097927038470457 0.7252791463364554 -0.19592402711687024
v 0.3129922340057538 0.7009763019746602 0.08425573172143319
vt 0.6875 0.4375
vt 0.75 0.4375
vt 0.75 0.25
vt 0.6875 0.25
vt 0.625 0.4375
vt 0.6875 0.4375
vt 0.6875 0.25
vt 0.625 0.25
vt 0.8125 0.4375
vt 0.875 0.4375
vt 0.875 0.25
vt 0.8125 0.25
vt 0.75 0.4375
vt 0.8125 0.4375
vt 0.8125 0.25
vt 0.75 0.25
vt 0.75 0.4375
vt 0.6875 0.4375
vt 0.6875 0.5
vt 0.75 0.5
vt 0.8125 0.5
vt 0.75 0.5
vt 0.75 0.4375
vt 0.8125 0.4375
vn -0.0113761072309622 0.08641011328638344 -0.9961946980917457
vn 0.9914448613738104 0.1305261922200516 1.734723475976807e-18
vn 0.0113761072309622 -0.08641011328638344 0.9961946980917457
vn -0.9914448613738104 -0.1305261922200516 -1.734723475976807e-18
vn -0.13002950065171948 0.9876721143508957 0.08715574274765818
vn 0.13002950065171948 -0.9876721143508957 -0.08715574274765818
usemtl m_a81a68b3-4bf3-20b2-e016-9574d7f5fe6f
f 44/124/31 47/123/31 45/122/31 42/121/31
f 43/128/32 44/127/32 42/126/32 41/125/32
f 48/132/33 43/131/33 41/130/33 46/129/33
f 47/136/34 48/135/34 46/134/34 45/133/34
f 46/140/35 41/139/35 42/138/35 45/137/35
f 47/144/36 44/143/36 43/142/36 48/141/36
o left_arm
v -0.21147328699869816 1.471612344658355 0.125
v -0.21147328699869816 1.471612344658355 -0.125
v -0.3417094202488959 0.7330065298991992 0.125
v -0.3417094202488959 0.7330065298991992 -0.125
v -0.45767522525175014 1.515024389075088 -0.125
v -0.45767522525175014 1.515024389075088 0.125
v -0.5879113585019479 0.7764185743159318 -0.125
v -0.5879113585019479 0.7764185743159318 0.125
vt 0.5625 0.1875
vt 0.625 0.1875
vt 0.625 0
vt 0.5625 0
vt 0.5 0.1875
vt 0.5625 0.1875
vt 0.5625 0
vt 0.5 0
vt 0.6875 0.1875
vt 0.75 0.1875
vt 0.75 0
vt 0.6875 0
vt 0.625 0.1875
vt 0.6875 0.1875
vt 0.6875 0
vt 0.625 0
vt 0.625 0.1875
vt 0.5625 0.1875
vt 0.5625 0.25
vt 0.625 0.25
vt 0.6875 0.25
vt 0.625 0.25
vt 0.625 0.1875
vt 0.6875 0.1875
vn 0 0 -1
vn 0.984807753012208 -0.17364817766693033 0
vn 0 0 1
vn -0.984807753012208 0.17364817766693033 0
vn 0.17364817766693033 0.984807753012208 0
vn -0.17364817766693033 -0.984807753012208 0
usemtl m_a81a68b3-4bf3-20b2-e016-9574d7f5fe6f
f 52/148/37 55/147/37 53/146/37 50/145/37
f 51/152/38 52/151/38 50/150/38 49/149/38
f 56/156/39 51/155/39 49/154/39 54/153/39
f 55/160/40 56/159/40 54/158/40 53/157/40
f 54/164/41 49/163/41 50/162/41 53/161/41
f 55/168/42 52/167/42 51/166/42 56/165/42
o left_sleeve
v -0.1933724130818366 1.4842867130231252 0.140625
v -0.1933724130818366 1.4842867130231252 -0.140625
v -0.32903505188412596 0.7149056559823377 0.140625
v -0.32903505188412596 0.7149056559823377 -0.140625
v -0.4703495936165201 1.5331252629919492 -0.140625
v -0.4703495936165201 1.5331252629919492 0.140625
v -0.6060122324188094 0.7637442059511619 -0.140625
v -0.6060122324188094 0.7637442059511619 0.140625
vt 0.8125 0.1875
vt 0.875 0.1875
vt 0.875 0
vt 0.8125 0
vt 0.75 0.1875
vt 0.8125 0.1875
vt 0.8125 0
vt 0.75 0
vt 0.9375 0.1875
vt 1 0.1875
vt 1 0
vt 0.9375 0
vt 0.875 0.1875
vt 0.9375 0.1875
vt 0.9375 0
vt 0.875 0
vt 0.875 0.1875
vt 0.8125 0.1875
vt 0.8125 0.25
vt 0.875 0.25
vt 0.9375 0.25
vt 0.875 0.25
vt 0.875 0.1875
vt 0.9375 0.1875
vn 0 0 -1
vn 0.984807753012208 -0.17364817766693033 0
vn 0 0 1
vn -0.984807753012208 0.17364817766693033 0
vn 0.17364817766693033 0.984807753012208 0
vn -0.17364817766693033 -0.984807753012208 0
usemtl m_a81a68b3-4bf3-20b2-e016-9574d7f5fe6f
f 60/172/43 63/171/43 61/170/43 58/169/43
f 59/176/44 60/175/44 58/174/44 57/173/44
f 64/180/45 59/179/45 57/178/45 62/177/45
f 63/184/46 64/183/46 62/182/46 61/181/46
f 62/188/47 57/187/47 58/186/47 61/185/47
f 63/192/48 60/191/48 59/190/48 64/189/48
o right_leg
v 0.1559835484119959 0.7668575132908182 0.146339224688409
v 0.2634206530547767 0.7636765084273791 -0.07937552838288442
v 0.25851857643860787 0.02626524990322554 0.2055816709412832
v 0.36595568108138865 0.023084245039786455 -0.020133082130010194
v 0.04028591923251912 0.7243318345213132 -0.18503009381805924
v -0.06715118541026166 0.7275128393847523 0.04068465925323417
v 0.1428209472591312 -0.016260428866279153 -0.125787647565185
v 0.035383842616350414 -0.013079424002840068 0.0999271055061084
vt 0.0625 0.6875
vt 0.125 0.6875
vt 0.125 0.5
vt 0.0625 0.5
vt 0 0.6875
vt 0.0625 0.6875
vt 0.0625 0.5
vt 0 0.5
vt 0.1875 0.6875
vt 0.25 0.6875
vt 0.25 0.5
vt 0.1875 0.5
vt 0.125 0.6875
vt 0.1875 0.6875
vt 0.1875 0.5
vt 0.125 0.5
vt 0.125 0.6875
vt 0.0625 0.6875
vt 0.0625 0.75
vt 0.125 0.75
vt 0.1875 0.75
vt 0.125 0.75
vt 0.125 0.6875
vt 0.1875 0.6875
vn 0.42974841857112317 -0.012724019453756355 -0.9028590122851735
vn 0.89253893528903 0.15737869562426263 0.4226182617406994
vn -0.42974841857112317 0.012724019453756355 0.9028590122851735
vn -0.89253893528903 -0.15737869562426263 -0.4226182617406994
vn -0.13671337070214937 0.9874563511834566 -0.07898992833716563
vn 0.13671337070214937 -0.9874563511834566 0.07898992833716563
usemtl m_a81a68b3-4bf3-20b2-e016-9574d7f5fe6f
f 68/196/49 71/195/49 69/194/49 66/193/49
f 67/200/50 68/199/50 66/198/50 65/197/50
f 72/204/51 67/203/51 65/202/51 70/201/51
f 71/208/52 72/207/52 70/206/52 69/205/52
f 70/212/53 65/211/53 66/210/53 69/209/53
f 71/216/54 68/215/54 67/214/54 72/213/54
o right_pants
v 0.1610785038184921 0.7849443737011534 0.16581558946479502
v 0.28194524654162056 0.7813657432297845 -0.08811350774041005
v 0.26788582467954636 0.01349409933907808 0.22752647097820566
v 0.3887525674026747 0.00991546886770911 -0.026402626226999404
v 0.030918670991580743 0.7371029850854609 -0.20697489385498175
v -0.08994807173154762 0.7406816155568299 0.04695420335022338
v 0.137725991852635 -0.034347289276614734 -0.14526401234157105
v 0.016859249129506537 -0.030768658805245763 0.10866508486363391
vt 0.0625 0.4375
vt 0.125 0.4375
vt 0.125 0.25
vt 0.0625 0.25
vt 0 0.4375
vt 0.0625 0.4375
vt 0.0625 0.25
vt 0 0.25
vt 0.1875 0.4375
vt 0.25 0.4375
vt 0.25 0.25
vt 0.1875 0.25
vt 0.125 0.4375
vt 0.1875 0.4375
vt 0.1875 0.25
vt 0.125 0.25
vt 0.125 0.4375
vt 0.0625 0.4375
vt 0.0625 0.5
vt 0.125 0.5
vt 0.1875 0.5
vt 0.125 0.5
vt 0.125 0.4375
vt 0.1875 0.4375
vn 0.42974841857112317 -0.012724019453756355 -0.9028590122851735
vn 0.89253893528903 0.15737869562426263 0.4226182617406994
vn -0.42974841857112317 0.012724019453756355 0.9028590122851735
vn -0.89253893528903 -0.15737869562426263 -0.4226182617406994
vn -0.13671337070214937 0.9874563511834566 -0.07898992833716563
vn 0.13671337070214937 -0.9874563511834566 0.07898992833716563
usemtl m_a81a68b3-4bf3-20b2-e016-9574d7f5fe6f
f 76/220/55 79/219/55 77/218/55 74/217/55
f 75/224/56 76/223/56 74/222/56 73/221/56
f 80/228/57 75/227/57 73/226/57 78/225/57
f 79/232/58 80/231/58 78/230/58 77/229/58
f 78/236/59 73/235/59 74/234/59 77/233/59
f 79/240/60 76/239/60 75/238/60 80/237/60
o left_leg
v 0 0.75 0.09999999999999998
v 0 0.75 -0.15000000000000002
v 0 0 0.09999999999999998
v 0 0 -0.15000000000000002
v -0.25 0.75 -0.15000000000000002
v -0.25 0.75 0.09999999999999998
v -0.25 0 -0.15000000000000002
v -0.25 0 0.09999999999999998
vt 0.3125 0.1875
vt 0.375 0.1875
vt 0.375 0
vt 0.3125 0
vt 0.25 0.1875
vt 0.3125 0.1875
vt 0.3125 0
vt 0.25 0
vt 0.4375 0.1875
vt 0.5 0.1875
vt 0.5 0
vt 0.4375 0
vt 0.375 0.1875
vt 0.4375 0.1875
vt 0.4375 0
vt 0.375 0
vt 0.375 0.1875
vt 0.3125 0.1875
vt 0.3125 0.25
vt 0.375 0.25
vt 0.4375 0.25
vt 0.375 0.25
vt 0.375 0.1875
vt 0.4375 0.1875
vn 0 0 -1
vn 1 0 0
vn 0 0 1
vn -1 0 0
vn 0 1 0
vn 0 -1 0
usemtl m_a81a68b3-4bf3-20b2-e016-9574d7f5fe6f
f 84/244/61 87/243/61 85/242/61 82/241/61
f 83/248/62 84/247/62 82/246/62 81/245/62
f 88/252/63 83/251/63 81/250/63 86/249/63
f 87/256/64 88/255/64 86/254/64 85/253/64
f 86/260/65 81/259/65 82/258/65 85/257/65
f 87/264/66 84/263/66 83/262/66 88/261/66
o left_pants
v 0.015625 0.765625 0.11562499999999998
v 0.015625 0.765625 -0.16562500000000002
v 0.015625 -0.015625 0.11562499999999998
v 0.015625 -0.015625 -0.16562500000000002
v -0.265625 0.765625 -0.16562500000000002
v -0.265625 0.765625 0.11562499999999998
v -0.265625 -0.015625 -0.16562500000000002
v -0.265625 -0.015625 0.11562499999999998
vt 0.0625 0.1875
vt 0.125 0.1875
vt 0.125 0
vt 0.0625 0
vt 0 0.1875
vt 0.0625 0.1875
vt 0.0625 0
vt 0 0
vt 0.1875 0.1875
vt 0.25 0.1875
vt 0.25 0
vt 0.1875 0
vt 0.125 0.1875
vt 0.1875 0.1875
vt 0.1875 0
vt 0.125 0
vt 0.125 0.1875
vt 0.0625 0.1875
vt 0.0625 0.25
vt 0.125 0.25
vt 0.1875 0.25
vt 0.125 0.25
vt 0.125 0.1875
vt 0.1875 0.1875
vn 0 0 -1
vn 1 0 0
vn 0 0 1
vn -1 0 0
vn 0 1 0
vn 0 -1 0
usemtl m_a81a68b3-4bf3-20b2-e016-9574d7f5fe6f
f 92/268/67 95/267/67 93/266/67 90/265/67
f 91/272/68 92/271/68 90/270/68 89/269/68
f 96/276/69 91/275/69 89/274/69 94/273/69
f 95/280/70 96/279/70 94/278/70 93/277/70
f 94/284/71 89/283/71 90/282/71 93/281/71
f 95/288/72 92/287/72 91/286/72 96/285/72